<svg xmlns="http://www.w3.org/2000/svg" width="27" height="27" viewBox="0 0 27 27">
  <defs>
    <style>
      .cls-1 {
        fill: #bdb272;
      }

      .cls-2 {
        fill: #fff;
      }
    </style>
  </defs>
  <g id="Group_23" data-name="Group 23" transform="translate(0.442 0)">
    <g id="Group_20" data-name="Group 20" transform="translate(0 0)">
      <circle id="Ellipse_7" data-name="Ellipse 7" class="cls-1" cx="13.5" cy="13.5" r="13.5" transform="translate(-0.442 0)"/>
    </g>
    <path id="_001-youtube" data-name="001-youtube" class="cls-2" d="M14.543-4.455a1.86,1.86,0,0,0-1.309-1.309,43.464,43.464,0,0,0-5.81-.318,45.157,45.157,0,0,0-5.81.306A1.9,1.9,0,0,0,.306-4.455,19.6,19.6,0,0,0,0-.884,19.53,19.53,0,0,0,.306,2.688,1.861,1.861,0,0,0,1.615,4a43.542,43.542,0,0,0,5.81.318,45.157,45.157,0,0,0,5.81-.306A1.86,1.86,0,0,0,14.543,2.7a19.608,19.608,0,0,0,.306-3.571A18.607,18.607,0,0,0,14.543-4.455Zm-8.6,5.8V-3.11L9.81-.884Zm0,0" transform="translate(5.633 14.383)"/>
  </g>
</svg>
