<svg xmlns="http://www.w3.org/2000/svg" width="27" height="27" viewBox="0 0 27 27">
  <defs>
    <style>
      .cls-1 {
        fill: #bdb272;
      }

      .cls-2 {
        fill: #fff;
      }
    </style>
  </defs>
  <g id="Group_24" data-name="Group 24" transform="translate(-0.114 0)">
    <g id="Group_21" data-name="Group 21" transform="translate(0 0)">
      <circle id="Ellipse_7" data-name="Ellipse 7" class="cls-1" cx="13.5" cy="13.5" r="13.5" transform="translate(0.114 0)"/>
    </g>
    <g id="_002-instagram" data-name="002-instagram" transform="translate(5.606 5.489)">
      <path id="Path_1" data-name="Path 1" class="cls-2" d="M16.426,4.71a5.854,5.854,0,0,0-.372-1.944A4.1,4.1,0,0,0,13.709.422,5.869,5.869,0,0,0,11.766.05C10.908.009,10.636,0,8.461,0s-2.447.009-3.3.047A5.855,5.855,0,0,0,3.216.419a3.909,3.909,0,0,0-1.421.926A3.944,3.944,0,0,0,.872,2.763,5.87,5.87,0,0,0,.5,4.707c-.041.858-.05,1.13-.05,3.3s.009,2.447.047,3.3a5.853,5.853,0,0,0,.372,1.944A4.1,4.1,0,0,0,3.213,15.6a5.87,5.87,0,0,0,1.944.372c.854.038,1.127.047,3.3.047s2.447-.009,3.3-.047A5.852,5.852,0,0,0,13.7,15.6a4.1,4.1,0,0,0,2.344-2.344,5.873,5.873,0,0,0,.372-1.944c.038-.854.047-1.127.047-3.3S16.463,5.564,16.426,4.71Zm-1.443,6.541a4.391,4.391,0,0,1-.275,1.487,2.657,2.657,0,0,1-1.521,1.521,4.407,4.407,0,0,1-1.487.275c-.845.038-1.1.047-3.236.047s-2.394-.009-3.236-.047a4.389,4.389,0,0,1-1.487-.275,2.465,2.465,0,0,1-.92-.6,2.491,2.491,0,0,1-.6-.92,4.407,4.407,0,0,1-.275-1.487c-.038-.845-.047-1.1-.047-3.236s.009-2.394.047-3.236A4.389,4.389,0,0,1,2.224,3.3a2.435,2.435,0,0,1,.6-.92,2.487,2.487,0,0,1,.92-.6A4.41,4.41,0,0,1,5.231,1.5c.845-.038,1.1-.047,3.236-.047s2.394.009,3.236.047a4.391,4.391,0,0,1,1.487.275,2.463,2.463,0,0,1,.92.6,2.49,2.49,0,0,1,.6.92,4.409,4.409,0,0,1,.275,1.487c.038.845.047,1.1.047,3.236S15.02,10.406,14.983,11.251Zm0,0" transform="translate(-0.449 0)"/>
      <path id="Path_2" data-name="Path 2" class="cls-2" d="M129.065,124.5a4.115,4.115,0,1,0,4.115,4.115A4.116,4.116,0,0,0,129.065,124.5Zm0,6.785a2.67,2.67,0,1,1,2.67-2.67A2.67,2.67,0,0,1,129.065,131.285Zm0,0" transform="translate(-121.053 -120.604)"/>
      <path id="Path_3" data-name="Path 3" class="cls-2" d="M364.371,89.562a.961.961,0,1,1-.961-.961A.961.961,0,0,1,364.371,89.562Zm0,0" transform="translate(-351.12 -85.829)"/>
    </g>
  </g>
</svg>
