<svg xmlns="http://www.w3.org/2000/svg" width="27" height="27" viewBox="0 0 27 27">
  <g id="lin-bla" transform="translate(0.327 0)">
    <g id="组_22" data-name="组 22" transform="translate(0 0)">
      <circle id="椭圆_7" data-name="椭圆 7" cx="13.5" cy="13.5" r="13.5" transform="translate(-0.327 0)"/>
    </g>
    <g id="_003-linkedin-logo" data-name="003-linkedin-logo" transform="translate(5.847 6.173)">
      <g id="post-linkedin" transform="translate(0 0)">
        <path id="路径_4" data-name="路径 4" d="M13.186,0H1.465A1.469,1.469,0,0,0,0,1.465V13.186a1.469,1.469,0,0,0,1.465,1.465H13.186a1.469,1.469,0,0,0,1.465-1.465V1.465A1.469,1.469,0,0,0,13.186,0ZM4.4,12.454H2.2V5.861H4.4ZM3.3,4.615A1.319,1.319,0,1,1,4.615,3.3,1.313,1.313,0,0,1,3.3,4.615Zm9.157,7.838h-2.2V8.571a1.1,1.1,0,1,0-2.2,0v3.883h-2.2V5.861h2.2V6.74A2.366,2.366,0,0,1,9.89,5.714a2.6,2.6,0,0,1,2.564,2.564Z" transform="translate(0 0)" fill="#fff"/>
      </g>
    </g>
  </g>
</svg>
