<svg xmlns="http://www.w3.org/2000/svg" width="27" height="27" viewBox="0 0 27 27">
  <defs>
    <style>
      .cls-1 {
        fill: #fff;
      }
    </style>
  </defs>
  <g id="Group_19" data-name="Group 19" transform="translate(0 0)">
    <circle id="Ellipse_7" data-name="Ellipse 7" cx="13.5" cy="13.5" r="13.5" transform="translate(0 0)"/>
    <g id="_006-snapchat" data-name="006-snapchat" transform="translate(6.087 7.034)">
      <g id="Group_18" data-name="Group 18" transform="translate(0 0)">
        <path id="Path_5" data-name="Path 5" class="cls-1" d="M15.28,27.2a4.215,4.215,0,0,1-2.964-2.365l-.011-.023a.52.52,0,0,1-.072-.45c.1-.228.542-.356.822-.439.079-.024.153-.046.212-.067.568-.208.852-.475.846-.792a.694.694,0,0,0-.532-.586,1.026,1.026,0,0,0-.363-.065.868.868,0,0,0-.339.065,1.824,1.824,0,0,1-.615.167.63.63,0,0,1-.166-.026c0-.079.011-.161.016-.244l0-.042a6.753,6.753,0,0,0-.2-2.955A4.284,4.284,0,0,0,7.99,17.029l-.306,0a4.277,4.277,0,0,0-3.917,2.35,6.744,6.744,0,0,0-.2,2.956c.007.1.013.192.019.284a.65.65,0,0,1-.2.027,1.736,1.736,0,0,1-.67-.168.9.9,0,0,0-1.139.5c-.05.242.055.59.836.878.061.022.137.045.231.073.262.077.7.206.8.433a.544.544,0,0,1-.081.469A4.34,4.34,0,0,1,.351,27.2.4.4,0,0,0,0,27.6a.472.472,0,0,0,.043.167c.172.375.828.635,2.063.817a2.273,2.273,0,0,1,.077.276c.026.111.053.225.091.344a.451.451,0,0,0,.472.321,2.246,2.246,0,0,0,.373-.048,4.253,4.253,0,0,1,.8-.085,3.805,3.805,0,0,1,.575.046,2.816,2.816,0,0,1,1.069.517,3.278,3.278,0,0,0,2.062.642l.079,0,.113,0a4.121,4.121,0,0,0,2.305-.643,2.851,2.851,0,0,1,1.067-.516,3.82,3.82,0,0,1,.576-.046,4.3,4.3,0,0,1,.806.08,2.133,2.133,0,0,0,.387.042.445.445,0,0,0,.454-.316c.036-.117.064-.228.09-.341a2.333,2.333,0,0,1,.077-.274c1.217-.18,1.838-.43,2.01-.8a.466.466,0,0,0,.045-.171A.4.4,0,0,0,15.28,27.2Z" transform="translate(0.002 -17.029)"/>
      </g>
    </g>
  </g>
</svg>
